<?xml version="1.0" standalone="no"?>
<!DOCTYPE svg PUBLIC "-//W3C//DTD SVG 20010904//EN"
 "http://www.w3.org/TR/2001/REC-SVG-20010904/DTD/svg10.dtd">
<svg version="1.0" xmlns="http://www.w3.org/2000/svg"
 width="600.000000pt" height="600.000000pt" viewBox="0 0 600.000000 600.000000"
 preserveAspectRatio="xMidYMid meet">
<metadata>
Created by potrace 1.14, written by Peter Selinger 2001-2017
</metadata>
<g transform="translate(0.000000,600.000000) scale(0.100000,-0.100000)"
fill="#000000" stroke="none">
<path d="M0 3585 c0 -1328 3 -2415 7 -2415 6 0 49 14 113 38 8 3 19 4 23 3 4
0 18 4 30 11 12 7 27 13 32 13 6 1 35 10 65 22 30 11 98 30 150 42 120 29 151
45 201 104 22 26 55 54 72 63 18 9 44 30 60 46 23 25 27 38 27 89 0 146 32
236 91 254 13 4 43 16 66 26 23 10 50 20 60 22 10 1 23 6 29 10 6 3 32 8 58 9
25 2 48 8 50 15 4 9 14 9 41 2 26 -7 40 -7 50 1 9 7 30 10 54 6 21 -3 54 -1
73 5 18 5 120 11 226 13 l192 4 19 -24 c10 -13 27 -57 36 -96 10 -40 21 -77
24 -83 4 -5 15 -37 25 -70 20 -67 46 -133 82 -213 13 -29 24 -56 24 -60 0 -4
-45 -49 -99 -100 -108 -100 -205 -221 -252 -313 -34 -67 -65 -188 -75 -292 -5
-54 -12 -75 -28 -89 -122 -102 -160 -125 -276 -168 -110 -41 -192 -85 -249
-135 -81 -71 -68 -68 -178 -41 -97 23 -183 26 -208 5 -6 -4 -39 -22 -73 -39
-68 -34 -97 -68 -88 -102 3 -13 29 -51 57 -85 l51 -63 2719 0 2719 0 0 180 0
180 -27 2 c-16 0 -34 1 -40 1 -7 -1 -13 4 -13 9 0 6 -7 8 -15 4 -8 -3 -15 0
-15 6 0 10 36 7 88 -8 21 -6 22 -4 22 50 0 42 -4 56 -14 56 -8 0 -22 8 -32 18
-10 9 -24 17 -32 17 -15 0 -26 15 -36 47 -3 9 -31 33 -63 54 -32 20 -61 42
-65 48 -4 6 6 23 23 38 56 52 74 130 43 191 -21 42 -121 140 -167 164 -37 19
-107 110 -107 140 0 22 -11 39 -27 44 -8 3 -6 19 8 59 16 43 19 70 15 125 -8
103 -13 128 -32 171 -12 27 -17 60 -15 104 2 57 -1 70 -27 108 -54 80 -171
191 -235 223 -64 33 -331 127 -433 153 -76 20 -277 53 -369 61 -38 3 -82 8
-97 11 -30 6 -36 -6 -43 -79 -13 -124 -26 -230 -30 -237 -3 -5 0 -10 7 -12 8
-3 12 -48 15 -144 1 -76 8 -190 14 -252 15 -158 -1 -324 -42 -447 -33 -98 -68
-157 -149 -255 -12 -14 -24 -30 -28 -35 -15 -22 -59 -43 -72 -35 -8 5 -19 5
-25 0 -12 -10 -65 -1 -65 12 0 5 5 6 10 3 5 -3 10 1 10 9 0 9 9 21 19 28 18
11 18 13 4 35 -15 23 -14 26 19 61 33 35 79 126 93 185 4 15 11 30 16 33 5 3
9 12 9 19 0 26 -27 4 -45 -36 -10 -21 -22 -39 -27 -39 -11 0 -11 -2 9 72 9 35
16 71 15 80 0 10 3 18 7 18 11 0 31 47 31 74 0 13 7 26 15 30 9 3 15 19 15 41
0 19 4 35 9 35 5 0 17 24 27 53 9 28 20 57 24 62 7 10 53 193 64 253 7 43 -6
40 -30 -7 -18 -36 -21 -38 -39 -25 -17 13 -18 16 -5 24 11 7 12 10 2 10 -8 0
-11 7 -8 18 5 13 -1 22 -19 30 -27 12 -26 36 0 25 9 -3 15 1 15 11 0 9 -6 16
-14 16 -8 0 -17 7 -20 16 -4 10 -2 13 7 8 6 -4 3 2 -7 14 -19 22 -19 22 1 22
12 0 24 7 27 16 9 22 8 24 -10 24 -8 0 -12 -4 -9 -10 9 -15 -11 -12 -24 4 -10
11 -8 16 9 21 19 6 21 12 15 43 -3 21 -18 62 -33 92 -33 68 -31 65 -39 57 -3
-4 0 -19 7 -33 8 -14 13 -36 12 -50 -1 -13 3 -24 8 -24 5 0 7 8 4 17 -5 15 -3
15 10 -1 22 -27 21 -47 -1 -39 -26 10 -43 35 -37 56 3 9 1 17 -5 17 -5 0 -13
9 -16 21 -4 13 -12 18 -22 15 -10 -4 -13 0 -11 16 2 11 -3 23 -10 25 -7 3 -10
-1 -6 -11 8 -20 7 -20 -46 -1 -23 8 -46 12 -51 9 -5 -3 -9 0 -9 6 0 8 9 10 25
6 29 -7 32 -1 9 21 -14 14 -17 14 -31 -7 -12 -18 -22 -21 -48 -16 -20 4 -36 2
-40 -4 -5 -8 -11 -8 -21 1 -8 6 -14 8 -14 3 0 -4 -6 1 -14 12 -12 15 -17 17
-27 6 -15 -14 -50 -16 -64 -4 -6 4 -28 14 -49 21 -22 8 -49 22 -60 33 -11 10
-38 24 -61 30 -22 7 -42 15 -45 18 -3 4 -35 22 -72 40 -62 30 -108 35 -93 10
8 -12 -11 -47 -22 -40 -4 3 -6 -14 -5 -36 4 -51 -16 -74 -63 -74 -52 0 -134
20 -150 37 -33 32 -65 21 -181 -62 -9 -7 -23 -4 -43 8 -16 9 -38 17 -49 17
-11 0 -22 7 -26 15 -3 8 -15 15 -26 15 -12 0 -19 4 -15 9 3 5 -5 11 -17 13
-19 2 -23 9 -23 40 0 21 -3 38 -8 38 -4 0 -3 9 3 20 6 11 16 17 22 14 7 -5 9
-1 5 9 -6 16 26 57 45 57 4 0 8 7 8 15 0 8 5 15 11 15 6 0 10 15 9 33 -1 17
-1 37 0 42 1 6 4 91 5 190 3 217 3 217 17 209 6 -4 9 -1 6 7 -2 7 7 24 20 36
25 23 48 31 37 13 -3 -6 4 -10 17 -10 47 -1 91 -60 102 -137 9 -67 55 -141 78
-127 4 2 10 -1 14 -7 5 -8 8 -8 14 0 5 9 26 4 76 -14 130 -50 187 -65 248 -69
59 -3 116 8 116 23 0 4 20 12 46 19 25 7 42 17 39 22 -4 6 34 9 105 7 86 -1
107 1 94 10 -8 6 -38 17 -65 23 -27 7 -49 16 -49 21 0 4 30 9 68 11 l67 3 -64
14 c-69 15 -67 21 14 48 39 13 38 13 -30 7 -83 -7 -76 -7 -98 -5 -28 2 0 25
48 41 22 7 42 16 45 20 8 12 50 14 98 6 55 -10 164 2 159 18 -2 6 -26 13 -53
16 l-49 5 53 14 c59 15 78 36 57 65 -8 10 -11 25 -8 33 3 8 0 19 -8 24 -11 7
-12 11 -1 17 10 7 10 11 -2 22 -9 7 -13 16 -10 21 3 5 0 9 -6 9 -7 0 -10 7 -6
15 3 8 1 15 -5 15 -6 0 -9 7 -5 15 3 8 0 15 -7 15 -7 0 -25 16 -41 35 -16 19
-36 35 -43 35 -8 0 -12 4 -9 9 3 4 -22 16 -55 26 -33 10 -62 22 -65 27 -3 4
-10 8 -16 8 -6 0 -5 -6 3 -16 11 -13 9 -14 -17 -8 -16 4 -36 8 -44 7 -60 -3
-173 -16 -215 -26 -46 -10 -81 -14 -177 -19 -20 -1 -34 -6 -32 -10 3 -4 -18
-6 -45 -4 -47 4 -78 -1 -123 -19 -14 -6 -18 -2 -18 16 0 14 -3 19 -8 13 -13
-20 -49 -26 -56 -9 -3 8 -15 15 -26 15 -17 0 -20 -4 -15 -21 5 -15 4 -19 -4
-15 -6 4 -11 16 -11 27 0 10 -5 19 -11 19 -5 0 -7 -5 -3 -11 5 -9 -1 -10 -20
-5 -19 5 -26 3 -26 -8 0 -9 -7 -12 -20 -9 -11 3 -20 10 -20 15 0 22 -20 -6
-21 -30 -1 -18 -3 -21 -6 -9 -3 11 -11 16 -19 13 -9 -3 -12 -1 -9 4 3 6 1 10
-4 10 -6 0 -21 10 -33 22 -12 12 -23 18 -24 12 -2 -5 -8 -35 -14 -66 -8 -40
-16 -58 -26 -58 -8 0 -12 5 -9 10 3 6 -1 10 -10 10 -9 0 -13 5 -10 10 4 6 -6
10 -22 10 -22 0 -25 2 -13 10 13 8 11 11 -7 16 -13 4 -20 11 -16 16 3 6 0 9
-7 6 -8 -2 -21 3 -30 11 -27 25 -61 46 -71 43 -5 -1 -22 9 -37 23 -15 14 -34
25 -43 25 -9 0 -22 7 -29 15 -7 9 -19 14 -26 11 -7 -3 -16 4 -19 14 -4 11 -17
23 -30 26 -13 3 -26 16 -29 29 -3 13 -16 27 -27 30 -17 6 -19 9 -8 16 12 8 12
10 0 18 -20 13 1 61 26 61 12 0 14 3 6 11 -11 11 -5 59 8 59 5 0 9 7 9 16 0 8
-5 12 -10 9 -6 -3 -10 1 -10 11 0 11 6 15 19 11 12 -3 22 1 25 10 8 21 -4 39
-15 22 -5 -8 -9 -9 -9 -3 0 5 9 20 20 32 l21 22 -21 0 c-13 0 -20 7 -20 20 0
12 -10 24 -22 30 -17 6 -18 9 -6 9 9 1 24 -6 32 -15 13 -12 16 -13 16 -1 0 7
-3 17 -7 21 -10 10 -11 46 -1 46 4 0 8 -5 8 -11 0 -5 4 -8 9 -5 5 3 12 -2 15
-11 6 -15 8 -15 16 -3 6 9 5 17 -3 22 -6 4 -8 10 -4 14 3 4 13 1 22 -6 12 -10
15 -10 15 1 0 11 19 14 80 14 44 0 80 3 80 8 0 4 7 7 16 7 8 0 13 4 10 9 -10
15 48 3 60 -13 14 -20 25 -21 18 -2 -3 8 -1 17 5 21 6 3 11 2 11 -4 0 -7 8 -7
25 1 14 6 25 16 25 21 0 6 5 6 13 0 6 -5 23 -6 37 -2 14 4 19 7 12 8 -18 1 -9
26 9 26 15 0 55 54 51 68 -1 5 3 5 9 1 6 -3 15 0 20 7 6 9 9 10 9 2 0 -15 57
-8 79 10 12 10 43 13 121 10 58 -2 113 -4 123 -4 9 0 15 -4 12 -8 -2 -5 6 -11
20 -13 13 -3 22 -1 19 3 -10 17 19 9 32 -8 8 -11 13 -13 14 -5 0 6 5 12 11 12
5 0 8 -4 5 -9 -3 -5 5 -12 19 -15 14 -4 25 -11 25 -17 0 -6 9 -8 20 -4 16 5
20 2 20 -14 0 -12 5 -21 10 -21 6 0 10 -7 10 -15 0 -8 7 -15 15 -15 9 0 12 -6
9 -15 -4 -8 -1 -15 6 -15 6 0 8 -4 5 -10 -3 -5 1 -20 10 -33 8 -13 12 -27 8
-30 -3 -4 1 -7 10 -7 20 0 23 -16 5 -23 -8 -3 -6 -6 5 -6 10 -1 17 -9 17 -20
0 -11 4 -22 9 -26 6 -3 16 -19 25 -35 8 -17 10 -28 4 -24 -12 8 38 -83 53 -96
4 -3 9 -15 13 -27 4 -13 14 -23 21 -23 8 0 12 -6 9 -14 -3 -8 4 -16 18 -19 13
-4 28 -16 33 -29 6 -13 19 -24 30 -26 11 -2 26 -11 33 -20 6 -9 12 -13 12 -9
0 4 10 1 23 -8 24 -15 89 -17 80 -1 -3 5 0 7 7 4 28 -9 72 48 71 94 0 9 7 19
15 22 13 5 31 -20 61 -86 14 -33 33 -37 33 -8 0 21 24 28 35 10 3 -5 16 -10
28 -10 20 1 20 2 5 11 -10 5 -18 14 -18 20 0 5 -9 29 -20 51 -24 50 -24 48 -4
48 8 0 12 5 8 11 -4 7 0 9 12 5 11 -3 25 -2 32 3 9 6 6 12 -13 27 -28 21 -34
39 -9 30 8 -3 12 -2 9 4 -3 6 -14 10 -23 10 -10 0 -13 3 -7 8 17 12 15 30 -3
25 -13 -3 -17 3 -18 29 -1 18 1 25 3 16 4 -17 15 -22 41 -19 6 1 12 -2 12 -7
0 -15 65 -82 79 -82 9 0 9 -5 1 -21 -7 -11 -9 -23 -6 -27 3 -3 6 0 6 6 0 7 4
12 10 12 5 0 7 -6 4 -14 -3 -8 3 -17 14 -20 11 -4 23 -14 27 -24 5 -14 4 -15
-6 -4 -15 14 -33 16 -24 2 3 -5 -1 -10 -9 -10 -18 0 -35 -29 -28 -49 3 -10 0
-12 -11 -8 -22 8 -28 -16 -17 -71 6 -26 21 -101 34 -167 32 -158 49 -218 60
-208 5 4 7 1 3 -9 -3 -9 -3 -19 1 -22 3 -4 7 -24 8 -46 3 -45 25 -95 71 -164
34 -50 40 -75 24 -105 -13 -23 -3 -65 13 -53 6 5 28 12 48 16 81 15 122 130
78 220 -12 27 -29 46 -38 47 -30 0 -107 10 -121 15 -20 7 -5 70 30 120 33 48
36 62 14 70 -17 7 -21 79 -5 89 16 10 12 45 -5 45 -14 0 -21 20 -15 45 1 6 3
63 4 127 1 88 -1 119 -11 122 -7 3 -13 11 -13 18 0 10 2 10 9 0 7 -11 9 -11
14 1 3 9 -3 25 -14 38 -21 24 -24 34 -9 24 6 -3 14 -4 20 0 5 3 -9 22 -31 42
-22 20 -37 38 -34 41 3 3 14 -3 24 -12 11 -10 26 -16 33 -13 8 4 5 8 -9 12
-27 9 -30 25 -5 25 16 1 16 1 0 11 -10 5 -24 9 -30 8 -7 -1 -29 0 -48 1 l-35
2 45 10 c47 10 80 29 37 21 -14 -3 -28 1 -32 7 -5 9 -1 10 14 5 12 -4 21 -2
21 4 0 6 -6 11 -12 12 -7 1 -2 4 11 8 23 6 22 7 -18 34 -22 15 -41 30 -41 33
0 4 11 -1 25 -10 28 -18 81 -21 90 -5 9 13 2 20 -23 22 -16 1 -19 5 -11 19 5
10 15 18 22 18 8 0 8 3 -2 9 -11 7 -9 11 8 20 19 11 20 14 6 27 -19 20 -19 34
0 34 8 0 15 9 15 19 0 31 43 50 67 29 9 -7 8 1 -3 28 -16 40 -52 76 -67 67 -4
-2 -24 3 -44 12 -25 12 -38 14 -46 6 -8 -8 -6 -11 7 -11 9 0 15 -4 11 -9 -3
-5 1 -16 9 -24 8 -8 13 -17 10 -20 -3 -3 -14 3 -24 13 -19 19 -60 17 -60 -4 0
-6 -9 0 -20 14 -16 21 -20 22 -20 7 0 -10 -4 -15 -10 -12 -16 10 -12 -7 11
-44 11 -18 18 -35 16 -38 -3 -2 -15 12 -27 33 -20 32 -24 34 -33 19 -11 -20 8
-88 30 -106 7 -6 13 -18 13 -25 0 -7 15 -21 33 -30 17 -10 26 -19 19 -21 -6
-3 -9 -10 -5 -16 3 -7 -10 4 -31 23 -21 19 -48 58 -61 85 -16 32 -25 43 -25
30 -1 -15 -4 -13 -12 10 -6 16 -17 35 -24 42 -10 11 -13 9 -16 -9 -2 -17 -9
-10 -30 32 -16 30 -28 50 -29 45 -1 -6 -2 -17 -3 -25 -2 -8 -3 -25 -4 -38 -3
-31 -19 -19 -27 20 -4 18 -14 38 -21 46 -12 11 -14 10 -14 -9 0 -18 -7 -12
-31 27 -17 27 -36 52 -42 55 -5 4 -7 15 -3 25 4 10 4 15 0 11 -9 -8 -34 11
-34 27 0 6 5 4 10 -4 7 -10 10 -11 10 -2 0 7 -7 15 -15 18 -8 4 -15 15 -15 25
0 10 -4 19 -10 19 -5 0 -10 5 -10 11 0 6 7 9 15 5 13 -4 14 -2 5 14 -6 11 -15
20 -19 20 -5 0 -11 7 -15 15 -5 13 -2 14 15 4 11 -6 23 -9 25 -6 6 6 -134 148
-161 164 l-20 12 20 1 c19 0 18 2 -5 21 l-25 21 30 -7 30 -6 -33 21 c-18 11
-37 20 -42 20 -5 0 -13 6 -17 13 -4 6 -28 22 -53 34 -34 16 -40 22 -22 22 12
1 22 5 22 10 0 10 -47 20 -99 22 -36 1 -36 1 -6 8 26 6 18 10 -61 29 -50 12
-100 22 -110 23 -14 0 -15 2 -4 6 8 3 17 10 20 14 8 11 87 14 138 5 26 -5 42
-4 42 2 0 14 41 2 47 -14 3 -8 13 -14 23 -14 11 0 21 -4 25 -10 3 -5 13 -6 22
-3 11 4 14 3 9 -5 -4 -8 -2 -10 7 -6 8 3 17 -2 20 -10 4 -9 13 -16 20 -16 8 0
20 -6 26 -14 6 -8 23 -16 36 -19 21 -3 25 0 25 18 0 39 -144 191 -237 251 -18
11 -30 23 -27 27 4 3 -7 9 -22 13 -16 4 -39 16 -51 27 -13 11 -29 17 -38 13
-11 -4 -14 -2 -9 6 5 8 -2 9 -24 5 -17 -4 -34 -2 -37 2 -3 5 -43 12 -90 16
-47 4 -83 11 -80 15 2 4 -19 5 -48 3 -38 -3 -48 -2 -37 6 12 9 10 11 -12 11
-16 0 -28 4 -28 9 0 4 18 6 40 4 25 -3 40 -1 40 6 0 6 16 11 35 11 19 0 35 4
35 8 0 7 -29 13 -77 16 -13 0 -23 5 -23 9 0 9 89 49 110 50 8 0 38 6 65 13
l50 14 -52 -5 c-34 -4 -54 -2 -59 6 -5 9 -1 10 14 7 12 -3 22 -2 24 2 2 4 41
10 88 13 77 5 81 4 38 -5 -27 -6 -48 -14 -48 -18 0 -8 188 -6 196 3 4 4 3 7
-3 7 -6 0 -13 6 -16 14 -5 12 0 12 26 5 49 -14 57 -9 12 8 -57 21 -262 22
-335 1 -91 -27 -159 -54 -178 -71 -10 -9 -47 -24 -82 -33 -36 -9 -72 -20 -80
-24 -8 -4 -27 -10 -42 -14 -22 -5 -28 -3 -28 9 0 9 7 18 15 21 8 4 15 12 15
19 0 14 70 71 83 67 4 -1 7 2 7 7 0 14 139 81 155 75 7 -3 25 2 39 11 13 9 46
20 73 25 39 8 34 8 -27 3 -95 -7 -154 -5 -205 8 -57 16 -135 -5 -220 -59 -74
-47 -215 -170 -215 -187 -1 -14 -137 -155 -150 -155 -5 0 -10 -10 -10 -22 0
-38 -21 -5 -24 38 -2 27 6 58 25 99 16 33 29 63 29 67 0 14 71 103 100 125 15
13 52 38 81 58 29 19 47 35 38 35 -17 0 -71 -26 -109 -53 -29 -20 -44 -22 -35
-4 3 6 0 3 -7 -7 -7 -11 -28 -35 -45 -53 -18 -19 -33 -38 -33 -42 0 -4 -12
-23 -26 -42 -46 -61 -74 -127 -84 -196 -5 -37 -10 -72 -10 -76 0 -5 -4 -6 -9
-2 -5 3 -16 -2 -24 -10 -20 -20 -34 -19 -46 3 -10 16 -10 16 -12 0 -1 -17 -4
-28 -9 -45 -1 -5 -6 3 -10 17 l-8 25 -1 -27 c-1 -20 -6 -26 -21 -25 -11 1 -20
4 -20 8 0 12 -81 -31 -87 -46 -3 -8 -14 -15 -25 -15 -10 0 -17 -4 -13 -9 5 -8
-13 -9 -57 -2 -5 0 -8 9 -8 18 0 9 -7 25 -17 35 -9 10 -17 33 -18 52 -1 18 -4
37 -7 42 -11 20 -18 64 -19 136 -2 97 -19 129 -19 36 0 -37 -4 -69 -10 -73
-11 -7 -7 188 5 224 6 17 5 22 -3 17 -7 -4 -15 -26 -19 -49 -6 -37 -7 -39 -13
-17 l-7 25 -12 -28 c-6 -16 -11 -37 -11 -48 0 -38 -29 -20 -37 24 l-9 42 -17
-34 c-27 -54 -22 -109 18 -187 19 -38 30 -71 24 -73 -5 -1 -2 -10 8 -18 10 -8
12 -12 6 -8 -7 3 -13 4 -13 1 0 -14 26 -62 38 -69 10 -7 10 -12 1 -23 -6 -8
-16 -14 -21 -14 -18 0 -101 -65 -151 -117 -27 -28 -54 -50 -61 -47 -6 2 -24
-27 -41 -68 -27 -65 -30 -86 -32 -187 -2 -92 -6 -117 -18 -124 -8 -4 -13 -12
-10 -18 6 -9 -13 -12 -67 -11 -33 1 -34 -1 -11 -24 13 -13 14 -19 5 -22 -7 -2
-10 -8 -6 -13 3 -5 -3 -9 -12 -9 -16 0 -16 -1 2 -15 10 -8 15 -15 9 -15 -5 0
-3 -5 5 -11 11 -8 12 -12 3 -16 -7 -2 -13 -13 -13 -24 0 -10 -7 -19 -15 -19
-11 0 -14 -7 -9 -24 7 -30 -9 -41 -31 -20 -15 15 -18 15 -31 2 -14 -14 -12
-16 16 -22 36 -7 36 -29 0 -34 -35 -6 -105 7 -126 22 -16 12 -13 13 26 9 44
-5 46 -4 62 31 12 25 22 34 33 30 23 -9 18 10 -10 38 -21 22 -22 24 -6 23 11
-1 26 -7 34 -13 12 -10 16 -8 20 15 7 35 -4 46 -49 49 -20 2 -48 11 -61 19
-23 15 -23 17 -7 29 16 12 16 15 1 37 -10 13 -17 31 -17 41 0 14 6 13 48 -10
l47 -26 -17 26 c-10 15 -18 29 -18 32 0 6 45 -7 92 -27 30 -13 37 -13 42 -2 3
8 -4 25 -15 38 -32 41 -21 43 19 4 l38 -37 10 50 c8 36 7 56 0 69 -6 10 -26
43 -43 72 -45 74 -41 85 5 16 35 -54 37 -55 44 -31 4 14 8 84 9 156 l2 130
-31 20 c-42 27 -40 32 5 13 26 -11 39 -12 43 -4 4 6 10 -3 13 -20 10 -48 39
-40 77 19 l33 51 -32 44 c-30 42 -34 66 -5 28 13 -17 13 -17 14 2 0 12 -9 39
-21 60 -12 22 -28 53 -36 68 -9 16 -12 38 -9 53 9 34 26 20 26 -20 0 -20 8
-40 20 -51 17 -15 20 -16 20 -3 0 9 3 30 7 48 4 24 3 31 -5 26 -7 -4 -12 -2
-12 3 0 6 -7 11 -15 11 -27 0 -16 17 15 24 37 7 37 14 0 69 -17 25 -30 51 -30
58 0 8 9 -1 20 -19 11 -19 30 -43 41 -55 l21 -22 -7 35 c-13 64 -16 175 -6
200 8 20 10 8 10 -57 1 -45 6 -85 11 -88 6 -3 10 3 10 13 0 25 26 48 33 30 3
-7 6 -4 6 7 1 16 3 17 10 6 6 -10 8 0 5 27 -4 45 -5 44 56 46 26 1 38 7 47 26
10 21 13 22 19 7 10 -28 23 -20 47 30 20 43 46 61 39 27 -4 -19 7 -18 30 3 17
15 18 15 18 -10 0 -20 4 -24 20 -20 11 3 27 15 35 26 18 26 31 16 16 -11 -6
-12 -11 -49 -10 -84 1 -47 3 -57 9 -38 l8 25 1 -28 c1 -41 18 -67 43 -67 17 0
19 3 10 12 -22 22 -13 29 10 8 27 -25 35 -25 50 0 7 11 18 20 24 20 6 0 21 21
32 48 19 43 20 44 21 18 l1 -29 25 27 c14 15 44 52 67 82 44 58 53 66 43 33
-6 -18 -4 -19 12 -11 35 19 93 88 93 110 0 16 47 102 56 102 3 0 3 -25 1 -55
-2 -30 -1 -55 2 -55 14 1 39 27 55 58 9 17 22 32 30 32 7 0 19 11 26 25 7 14
19 25 27 25 17 0 16 -7 -5 -38 -35 -51 -36 -57 -3 -29 40 33 63 36 32 3 -15
-16 -19 -26 -12 -31 16 -9 4 -25 -19 -25 -10 0 -21 -4 -24 -8 -5 -8 90 3 124
14 13 4 13 6 0 14 -10 7 -11 10 -2 10 9 0 12 35 12 140 l0 140 -700 0 -699 0
4 -266 c2 -146 6 -269 9 -272 3 -3 1 -11 -5 -19 -8 -9 -8 -17 -2 -25 14 -18
16 -188 2 -188 -16 0 -332 320 -424 430 -44 52 -82 97 -85 100 -3 3 -20 24
-39 48 -30 39 -55 52 -63 35 -1 -5 -16 -15 -33 -24 -25 -12 -30 -21 -29 -50 3
-159 16 -475 21 -522 5 -52 3 -61 -18 -83 -13 -14 -39 -35 -59 -47 -38 -23
-51 -37 -45 -48 3 -3 8 -80 11 -170 7 -177 18 -232 48 -237 31 -6 39 13 21 49
-20 37 -32 175 -21 233 15 80 83 101 141 43 31 -31 33 -37 40 -129 7 -104 1
-153 -22 -180 -12 -13 -13 -28 -5 -80 9 -55 7 -76 -15 -162 l-26 -99 16 -136
c9 -75 17 -190 17 -256 1 -66 3 -145 5 -175 7 -96 25 -890 29 -1265 1 -96 -19
-140 -77 -168 -47 -24 -73 -17 -125 30 l-41 38 -6 225 c-5 226 -11 421 -20
625 -3 61 -7 211 -10 335 -4 124 -8 254 -10 290 -2 36 -6 173 -9 305 -4 132
-8 308 -11 390 -3 83 -7 364 -11 625 -3 261 -8 491 -9 510 -2 19 -3 92 -4 163
l-1 127 -210 0 -210 0 0 -2415z m2953 1879 c3 -4 -29 -23 -71 -44 -50 -24 -79
-33 -84 -26 -4 7 -14 4 -27 -9 -12 -10 -24 -15 -28 -12 -4 4 2 14 13 22 15 11
16 14 4 15 -9 0 -30 -13 -47 -28 -17 -16 -53 -46 -79 -68 -27 -21 -53 -45 -57
-52 -11 -17 -67 -45 -67 -32 0 5 5 10 10 10 6 0 10 9 10 20 0 10 12 31 28 45
62 58 118 105 125 105 5 0 23 10 40 22 16 12 46 25 66 29 46 9 156 11 164 3z
m177 -124 c0 -5 -3 -10 -7 -10 -5 0 -19 -3 -33 -6 -24 -5 -24 -5 -6 10 22 18
46 21 46 6z m-250 -91 c0 -5 -4 -9 -10 -9 -5 0 -10 7 -10 16 0 8 5 12 10 9 6
-3 10 -10 10 -16z m177 -5 c-14 -13 -137 -7 -137 7 0 5 34 8 75 6 55 -1 71 -5
62 -13z m-1378 -61 c0 -36 -3 -43 -9 -28 -12 28 -12 75 0 75 6 0 10 -21 9 -47z
m1297 9 c-2 -4 -19 -9 -38 -10 -19 -1 -28 1 -21 6 16 10 65 14 59 4z m-1570
-47 c17 -13 16 -14 -13 -4 -34 11 -42 19 -20 19 7 0 22 -7 33 -15z m1969 -25
c3 -6 -1 -7 -9 -4 -18 7 -21 14 -7 14 6 0 13 -4 16 -10z m-1641 -244 c-3 -8 3
-16 15 -19 16 -4 19 -12 18 -41 -1 -25 -6 -35 -15 -31 -8 3 -23 -1 -34 -9 -19
-13 -19 -14 -1 -18 14 -3 -4 -26 -83 -109 -56 -57 -116 -130 -134 -162 -21
-38 -35 -55 -40 -47 -4 7 -5 21 -3 31 3 10 0 19 -6 19 -6 0 -11 -14 -11 -31 0
-20 -4 -28 -11 -23 -17 10 -5 131 20 187 22 50 23 52 70 107 33 38 43 28 12
-11 -34 -44 -81 -142 -80 -168 0 -19 6 -9 23 34 28 75 94 180 123 196 12 7 20
16 17 21 -6 10 33 44 80 70 38 21 47 22 40 4z m1962 -54 c-8 -7 -25 8 -37 31
-11 21 -10 21 15 -2 14 -14 24 -26 22 -29z m504 -652 c0 -5 -4 -10 -10 -10 -5
0 -10 5 -10 10 0 6 5 10 10 10 6 0 10 -4 10 -10z m95 -70 c-3 -5 -12 -10 -18
-10 -7 0 -6 4 3 10 19 12 23 12 15 0z m-3056 -67 c-9 -60 40 -178 73 -178 6 0
18 -30 27 -68 19 -75 26 -85 60 -90 18 -3 33 -20 58 -67 18 -36 33 -73 33 -84
0 -11 6 -27 14 -35 24 -28 29 -60 10 -68 -10 -4 -20 0 -26 10 -14 26 -35 20
-43 -10 -6 -27 -7 -27 -20 -9 -8 10 -12 23 -9 27 7 12 -25 71 -36 64 -8 -5
-30 54 -30 81 0 7 -6 14 -14 17 -8 3 -17 26 -21 54 -4 26 -9 56 -12 66 -5 20
-53 47 -83 47 -17 0 -19 4 -13 28 8 27 7 43 -1 117 -5 46 10 115 25 115 6 0 9
-8 8 -17z m3058 -29 c-3 -3 -12 -4 -19 -1 -8 3 -5 6 6 6 11 1 17 -2 13 -5z
m13 -24 c0 -5 -4 -10 -9 -10 -6 0 -13 5 -16 10 -3 6 1 10 9 10 9 0 16 -4 16
-10z m-15 -290 c21 -41 19 -51 -5 -15 -11 17 -20 33 -20 38 0 15 10 6 25 -23z
m-230 -18 c-3 -3 -11 0 -18 7 -9 10 -8 11 6 5 10 -3 15 -9 12 -12z m155 14 c0
-3 -4 -8 -10 -11 -5 -3 -10 -1 -10 4 0 6 5 11 10 11 6 0 10 -2 10 -4z m-9
-114 c10 -4 14 -13 10 -24 -5 -14 -9 -13 -24 8 -18 24 -15 28 14 16z m-1301
-276 c0 -2 -9 -6 -20 -9 -11 -3 -20 -1 -20 4 0 5 9 9 20 9 11 0 20 -2 20 -4z
m1379 -226 c0 -10 -3 -8 -9 5 -12 27 -12 43 0 25 5 -8 9 -22 9 -30z m-1465 -6
c3 -8 2 -12 -4 -9 -6 3 -10 10 -10 16 0 14 7 11 14 -7z m-1198 -263 c-4 -5 -1
-11 6 -13 15 -5 18 -117 3 -118 -16 -2 -36 86 -25 114 5 14 12 26 15 26 4 0 4
-4 1 -9z m729 -290 c-4 -14 0 -21 12 -24 14 -4 13 -5 -4 -6 -25 -1 -31 -19
-10 -27 14 -5 11 -74 -4 -74 -5 0 -7 -18 -5 -40 4 -37 2 -40 -16 -35 -13 5
-19 2 -17 -7 5 -43 -1 -56 -28 -54 -16 0 -33 8 -40 16 -15 18 -16 10 -4 -23 9
-23 7 -25 -22 -30 -18 -2 -34 -1 -37 4 -3 4 -14 7 -25 6 -12 -1 -19 3 -17 11
1 8 -2 11 -8 7 -6 -3 -8 -10 -5 -15 3 -5 1 -11 -5 -15 -9 -6 -14 10 -13 42 1
9 -4 10 -15 4 -14 -8 -31 -3 -62 17 -2 2 2 7 10 12 8 5 11 13 6 17 -4 4 -13 0
-21 -10 -11 -16 -13 -15 -18 15 -2 18 -2 37 1 43 4 5 5 22 3 37 -1 16 2 28 7
28 8 0 10 7 13 48 1 9 8 25 16 34 13 14 35 17 151 16 97 -1 137 2 140 10 2 7
8 12 14 12 5 0 7 -9 3 -19z m996 -363 c-13 -4 -28 -5 -34 -1 -7 4 -2 10 13 13
33 9 50 -1 21 -12z m619 2 c0 -5 -7 -7 -15 -4 -8 4 -15 8 -15 10 0 2 7 4 15 4
8 0 15 -4 15 -10z m-625 -60 c3 -5 1 -10 -4 -10 -6 0 -11 5 -11 10 0 6 2 10 4
10 3 0 8 -4 11 -10z m774 -64 c-3 -3 -11 5 -18 17 -13 21 -12 21 5 5 10 -10
16 -20 13 -22z m-254 -23 c20 -20 28 -34 20 -37 -14 -5 -14 -74 0 -96 5 -8 10
-24 11 -37 2 -18 -2 -23 -19 -22 -12 0 -17 3 -10 5 13 6 -3 64 -21 76 -7 5 -7
8 -1 8 16 0 10 47 -8 68 -9 10 -17 23 -17 29 0 6 -7 13 -15 17 -22 8 -18 25 6
23 12 -1 36 -16 54 -34z m-2648 -59 c-3 -3 -12 -4 -19 -1 -8 3 -5 6 6 6 11 1
17 -2 13 -5z m2731 -35 c-3 -8 -7 -3 -11 10 -4 17 -3 21 5 13 5 -5 8 -16 6
-23z m622 2 c62 -24 171 -110 166 -132 -2 -9 0 -23 5 -31 6 -10 4 -20 -5 -27
-10 -8 -19 -5 -37 13 -38 38 -49 54 -49 71 0 8 -5 15 -11 15 -6 0 -22 14 -36
30 -13 17 -30 30 -36 30 -7 0 -34 11 -62 25 -49 24 -49 24 -18 25 18 0 55 -9
83 -19z m-665 -1 c3 -5 2 -10 -4 -10 -5 0 -13 5 -16 10 -3 6 -2 10 4 10 5 0
13 -4 16 -10z m-783 -49 c7 11 11 11 15 2 6 -15 43 -18 43 -3 0 13 50 -10 50
-24 0 -6 5 -3 11 7 7 13 15 15 28 8 9 -5 29 -8 44 -7 32 4 40 -4 27 -24 -7
-12 -39 -16 -147 -18 -154 -2 -172 0 -153 23 7 9 15 13 18 11 9 -10 42 15 43
32 1 14 2 14 6 -2 4 -15 7 -16 15 -5z m858 -27 c0 -2 -9 -4 -20 -4 -11 0 -20
4 -20 9 0 5 9 7 20 4 11 -3 20 -7 20 -9z m165 -24 c3 -5 2 -10 -4 -10 -5 0
-13 5 -16 10 -3 6 -2 10 4 10 5 0 13 -4 16 -10z m-1305 -12 c0 6 11 8 28 5 15
-3 38 -6 52 -5 36 2 70 -7 70 -18 0 -5 -21 -15 -47 -23 -81 -24 -155 -3 -139
39 5 13 9 14 21 4 9 -8 15 -9 15 -2z m171 -11 c-10 -9 -11 -8 -5 6 3 10 9 15
12 12 3 -3 0 -11 -7 -18z m849 -2 c-7 -9 -15 -13 -17 -11 -7 7 7 26 19 26 6 0
6 -6 -2 -15z m277 -11 c5 -15 -44 -15 -56 0 -7 8 -1 12 21 11 17 0 33 -5 35
-11z m-589 -55 c-8 -5 -9 -9 -2 -9 7 0 23 -15 38 -34 24 -31 25 -36 10 -50
-10 -10 -11 -16 -3 -16 8 0 9 -3 0 -14 -6 -7 -9 -21 -5 -30 4 -11 1 -16 -10
-16 -9 0 -16 -4 -16 -10 0 -5 5 -10 11 -10 5 0 8 -4 5 -9 -3 -5 -16 -7 -28 -3
-14 3 -19 2 -14 -6 4 -7 14 -12 22 -12 8 0 14 -6 14 -12 0 -10 2 -10 8 -1 5 8
12 8 25 -2 16 -11 14 -13 -14 -19 -17 -3 -36 -3 -42 1 -6 4 -8 0 -5 -9 4 -8 2
-21 -3 -29 -7 -11 -12 -12 -29 -1 -18 11 -20 10 -20 -12 0 -14 5 -28 10 -31 6
-3 10 -13 10 -21 0 -16 -36 -19 -45 -4 -11 17 -43 11 -41 -7 1 -13 -5 -17 -21
-16 -26 3 -29 -9 -10 -29 24 -26 18 -37 -18 -32 -34 4 -34 4 -23 -21 10 -22 9
-29 -6 -43 -17 -16 -18 -16 -7 5 15 29 15 28 -13 31 -25 2 -44 -32 -24 -44 7
-4 6 -9 -1 -14 -8 -5 -3 -17 18 -38 17 -19 23 -32 16 -32 -8 0 -17 -5 -20 -11
-12 -19 3 -21 29 -4 29 19 46 13 46 -16 0 -11 5 -29 10 -40 11 -20 4 -24 -18
-11 -7 5 -10 16 -7 24 4 9 2 19 -4 23 -6 3 -11 2 -11 -3 0 -6 -8 -9 -17 -7
-10 1 -12 0 -5 -2 6 -3 12 -11 12 -18 0 -8 7 -18 15 -23 14 -7 14 -12 2 -35
-12 -23 -16 -25 -26 -13 -6 7 -9 20 -5 29 3 8 0 18 -5 22 -6 3 -9 10 -7 14 3
4 -10 13 -29 18 -32 10 -33 10 -25 -12 11 -29 3 -37 -21 -24 -15 7 -19 6 -19
-5 0 -8 3 -16 8 -19 4 -2 1 -2 -5 -1 -7 2 -13 -4 -13 -14 0 -13 -3 -12 -16 6
-8 12 -12 27 -9 32 3 6 -1 10 -9 10 -10 0 -13 6 -10 18 5 14 4 14 -5 2 -9 -12
-11 -12 -16 2 -4 9 -2 25 4 35 6 12 6 25 0 34 -7 12 -9 11 -9 -2 0 -9 -7 -19
-15 -22 -11 -5 -12 -12 -4 -37 6 -16 17 -30 24 -30 20 0 29 -20 15 -33 -10 -9
-11 -9 -5 2 6 10 4 13 -7 9 -10 -4 -22 6 -37 32 -17 31 -28 39 -54 42 -19 2
-32 9 -32 17 0 19 43 22 60 4 8 -7 16 -9 19 -4 4 5 0 11 -6 14 -9 3 -5 11 11
26 13 11 19 21 13 21 -6 0 -14 -4 -17 -10 -9 -15 -22 -12 -29 6 -4 10 -1 14 6
12 7 -3 19 1 26 9 18 18 32 16 32 -4 0 -14 3 -13 16 6 14 20 23 22 55 18 22
-3 39 -1 39 4 0 5 -6 9 -12 10 -10 0 -10 2 0 6 17 7 15 40 -2 50 -12 6 -13 17
-6 47 5 21 13 42 18 45 16 11 31 47 23 59 -4 6 -21 12 -39 14 -18 1 -32 5 -32
9 0 3 -13 6 -29 7 -17 0 -39 6 -51 12 -18 10 -19 14 -8 28 11 13 11 15 -4 9
-10 -3 -18 -2 -18 3 0 5 -7 7 -15 4 -8 -4 -15 -1 -15 6 0 7 -8 10 -20 7 -11
-3 -20 -2 -20 2 0 15 25 31 48 31 13 0 21 4 17 10 -3 6 -15 6 -30 0 -15 -6
-27 -6 -30 0 -4 6 -22 10 -41 10 -49 0 -45 26 6 35 23 4 44 14 50 25 9 18 34
25 120 35 25 3 55 8 67 10 27 6 37 -8 24 -34 -10 -18 -9 -19 27 -10 20 6 66
24 102 41 91 43 130 56 152 50 15 -4 17 -7 6 -13z m-256 -61 c-7 -7 -12 -8
-12 -2 0 14 12 26 19 19 2 -3 -1 -11 -7 -17z m653 2 c3 -5 1 -10 -4 -10 -6 0
-11 5 -11 10 0 6 2 10 4 10 3 0 8 -4 11 -10z m-1016 -112 c1 -14 7 -29 14 -31
8 -4 8 -6 0 -6 -19 -1 -44 58 -36 88 l7 26 7 -25 c4 -14 7 -37 8 -52z m1881
-43 c0 -5 -5 -3 -10 5 -5 8 -10 20 -10 25 0 6 5 3 10 -5 5 -8 10 -19 10 -25z
m-1290 -177 c0 -4 -6 -8 -14 -8 -8 0 -17 4 -20 8 -2 4 4 8 15 8 10 0 19 -4 19
-8z m-63 -25 c13 -19 12 -20 -12 -16 -17 4 -25 12 -25 25 0 24 18 19 37 -9z
m-33 -49 c9 -3 16 -11 16 -17 0 -8 -3 -8 -11 0 -9 9 -17 7 -32 -8 -11 -10 -23
-16 -26 -13 -3 3 2 10 12 15 9 6 15 14 12 20 -7 10 6 12 29 3z m-14 -54 c0 -5
8 -10 17 -10 9 0 14 -2 11 -5 -9 -9 -58 6 -52 16 7 12 24 11 24 -1z m-17 -51
c4 -14 0 -15 -29 -6 -37 11 -37 26 0 23 14 0 27 -8 29 -17z m1707 -2 c0 -2
-12 -14 -26 -28 l-27 -24 18 28 c14 22 35 36 35 24z m-2036 -113 c3 -8 2 -12
-4 -9 -6 3 -10 10 -10 16 0 14 7 11 14 -7z m36 -18 c0 -3 -4 -8 -10 -11 -5 -3
-10 -1 -10 4 0 6 5 11 10 11 6 0 10 -2 10 -4z m2271 -905 c13 -11 22 -22 19
-24 -3 -3 -18 6 -35 19 -16 13 -25 24 -19 24 7 0 22 -9 35 -19z m99 -98 c0 -7
-39 17 -46 28 -3 6 5 3 20 -6 14 -10 26 -19 26 -22z"/>
<path d="M3275 1260 c3 -5 10 -10 16 -10 5 0 9 5 9 10 0 6 -7 10 -16 10 -8 0
-12 -4 -9 -10z"/>
<path d="M3270 1229 c0 -5 5 -7 10 -4 6 3 10 8 10 11 0 2 -4 4 -10 4 -5 0 -10
-5 -10 -11z"/>
<path d="M3290 1130 c-12 -8 -10 -10 8 -10 13 0 20 4 17 10 -7 12 -6 12 -25 0z"/>
<path d="M3200 1059 c0 -5 5 -7 10 -4 6 3 10 8 10 11 0 2 -4 4 -10 4 -5 0 -10
-5 -10 -11z"/>
<path d="M5770 5991 c0 -5 -9 -13 -20 -16 -23 -7 -50 -32 -50 -46 0 -5 9 -9
20 -9 12 0 20 -7 20 -16 0 -14 -2 -15 -17 -3 -10 8 -2 -5 18 -28 45 -54 59
-98 45 -140 -15 -43 -21 -47 -47 -30 -11 9 -28 13 -36 10 -8 -3 -18 0 -23 6
-4 7 -17 11 -28 9 -21 -3 -21 -3 4 -35 19 -25 33 -33 57 -33 20 -1 43 -11 62
-27 38 -33 39 -76 2 -125 -20 -26 -26 -43 -22 -60 4 -16 -1 -33 -15 -51 -16
-20 -17 -25 -6 -21 11 4 16 0 16 -13 0 -10 7 -29 16 -41 12 -17 19 -20 34 -12
28 15 96 12 109 -4 7 -9 11 -38 9 -73 -3 -58 -3 -58 -42 -71 -21 -7 -49 -13
-61 -14 -20 -2 -22 -8 -24 -56 -1 -50 -28 -123 -50 -136 -5 -4 -12 -20 -16
-36 -4 -17 -11 -30 -16 -30 -5 0 -9 -6 -9 -14 0 -8 -6 -16 -14 -19 -8 -3 -22
-24 -32 -46 -10 -23 -21 -41 -25 -41 -20 0 15 -161 40 -180 3 -3 17 -22 31
-43 14 -21 40 -46 57 -57 33 -19 37 -50 7 -50 -8 0 -14 -4 -14 -10 0 -5 -3 -9
-7 -8 -5 1 -21 -5 -38 -12 -16 -7 -33 -14 -37 -14 -3 -1 -10 -4 -14 -8 -4 -5
-18 -8 -31 -8 -12 0 -23 -4 -23 -10 0 -5 -6 -10 -13 -10 -7 0 -28 -12 -47 -27
-54 -44 -176 -166 -182 -184 -9 -25 -83 -3 -97 28 -6 13 -14 22 -18 21 -5 -1
-18 3 -29 10 -33 18 -137 10 -159 -12 -26 -26 -61 -75 -82 -116 -10 -19 -31
-46 -46 -59 -16 -14 -36 -31 -44 -39 -12 -13 -18 -11 -41 10 -38 36 -69 51
-77 38 -4 -6 -15 -8 -26 -5 -11 4 -19 2 -19 -5 0 -6 -11 -8 -25 -6 -20 4 -25
1 -25 -17 0 -20 0 -20 -16 -1 -8 10 -13 13 -9 7 13 -26 -6 -33 -32 -13 -37 29
-45 15 -21 -34 25 -52 19 -83 -11 -64 -15 9 -26 8 -52 -5 -19 -9 -28 -17 -21
-17 21 0 13 -20 -12 -30 -36 -13 -40 -27 -16 -58 l22 -27 -31 -3 c-34 -4 -32
4 -35 -137 0 -33 -4 -65 -8 -71 -4 -7 -1 -17 7 -24 11 -9 12 -16 2 -31 -9 -15
-9 -21 0 -27 10 -7 10 -12 -1 -27 -12 -17 -9 -20 28 -39 83 -42 119 -137 120
-321 1 -139 10 -162 72 -184 49 -17 61 -27 91 -74 32 -50 106 -85 210 -97 131
-16 335 -49 398 -64 33 -9 103 -27 155 -41 52 -13 109 -25 127 -25 50 0 133
-20 193 -47 49 -22 142 -53 163 -53 4 0 7 738 7 1640 l0 1640 -54 -1 c-42 -1
-58 3 -74 19 -14 14 -17 22 -9 26 7 2 0 5 -15 5 -23 1 -29 7 -39 44 -14 51
-15 74 -5 110 7 23 5 27 -13 27 -12 0 -21 -4 -21 -9z m-672 -2489 c7 -5 15
-25 18 -44 11 -67 -48 -114 -90 -72 -25 25 -24 92 2 112 18 14 51 16 70 4z
m-307 -386 c9 -19 7 -29 -6 -50 -10 -14 -24 -26 -33 -26 -24 0 -52 30 -52 56
0 45 73 61 91 20z"/>
<path d="M5825 5850 c-4 -6 3 -10 14 -10 25 0 27 6 6 13 -8 4 -17 2 -20 -3z"/>
<path d="M2506 5713 c-6 -14 -5 -15 5 -6 7 7 10 15 7 18 -3 3 -9 -2 -12 -12z"/>
<path d="M2355 5610 c-3 -5 -1 -10 4 -10 6 0 11 5 11 10 0 6 -2 10 -4 10 -3 0
-8 -4 -11 -10z"/>
<path d="M2641 5539 c-56 -11 -69 -24 -16 -16 22 4 55 7 73 7 20 0 31 4 27 10
-7 11 -22 11 -84 -1z"/>
<path d="M2758 5533 c7 -3 16 -2 19 1 4 3 -2 6 -13 5 -11 0 -14 -3 -6 -6z"/>
<path d="M1903 5475 c-3 -9 -3 -18 -1 -21 3 -3 8 4 11 16 6 23 -1 27 -10 5z"/>
<path d="M2560 5470 c-10 -7 1 -8 35 -4 28 4 52 8 54 10 10 9 -75 3 -89 -6z"/>
<path d="M2152 5278 c-27 -47 -73 -193 -72 -230 1 -27 21 22 31 76 5 30 26 87
45 126 43 84 39 104 -4 28z"/>
<path d="M3175 5263 c-25 -6 -40 -19 -23 -21 95 -10 112 -10 95 -1 -9 6 -22 7
-29 3 -8 -5 -9 -2 -5 9 7 17 0 19 -38 10z"/>
<path d="M3116 5221 c-8 -13 92 -23 112 -12 13 8 9 11 -23 11 -22 1 -50 3 -62
6 -12 2 -24 0 -27 -5z"/>
<path d="M1542 5165 c-6 -22 -11 -61 -10 -88 0 -39 3 -45 14 -36 11 9 14 8 14
-5 0 -10 5 -14 10 -11 14 9 11 103 -4 145 l-13 35 -11 -40z"/>
<path d="M3506 5161 c10 -11 72 -27 63 -17 -4 4 -21 11 -39 16 -20 6 -30 6
-24 1z"/>
<path d="M1620 5090 c6 -11 13 -20 16 -20 2 0 0 9 -6 20 -6 11 -13 20 -16 20
-2 0 0 -9 6 -20z"/>
<path d="M3516 5101 c-3 -5 1 -11 8 -14 8 -3 17 -1 20 6 2 7 5 5 5 -4 1 -20
23 -30 41 -19 9 6 4 12 -18 24 -35 18 -48 20 -56 7z"/>
<path d="M3607 5063 c-13 -13 -7 -20 18 -20 28 0 33 12 9 21 -19 7 -19 7 -27
-1z"/>
<path d="M3676 5043 c-8 -19 20 -42 52 -43 27 0 29 16 2 25 -11 3 -26 13 -34
20 -12 13 -15 12 -20 -2z"/>
<path d="M3338 4893 c12 -2 32 -2 45 0 12 2 2 4 -23 4 -25 0 -35 -2 -22 -4z"/>
<path d="M3530 4850 c8 -5 20 -10 25 -10 6 0 3 5 -5 10 -8 5 -19 10 -25 10 -5
0 -3 -5 5 -10z"/>
<path d="M1400 4769 c0 -40 4 -58 11 -54 6 4 8 10 5 13 -3 3 -1 11 6 19 6 7 8
16 5 20 -4 3 -2 13 3 22 6 13 3 20 -11 29 -18 12 -19 9 -19 -49z"/>
<path d="M3981 4234 c0 -11 3 -14 6 -6 3 7 2 16 -1 19 -3 4 -6 -2 -5 -13z"/>
<path d="M4610 4110 c0 -5 5 -10 11 -10 5 0 7 5 4 10 -3 6 -8 10 -11 10 -2 0
-4 -4 -4 -10z"/>
<path d="M4145 3670 c-3 -5 -1 -10 4 -10 6 0 11 5 11 10 0 6 -2 10 -4 10 -3 0
-8 -4 -11 -10z"/>
<path d="M4090 3586 c7 -7 13 -7 20 0 6 6 3 10 -10 10 -13 0 -16 -4 -10 -10z"/>
<path d="M4436 3273 c-30 -30 -44 -72 -27 -82 6 -4 35 -60 65 -124 l53 -116 6
97 c8 139 -17 252 -57 252 -7 0 -25 -12 -40 -27z"/>
<path d="M3828 2793 c7 -3 16 -2 19 1 4 3 -2 6 -13 5 -11 0 -14 -3 -6 -6z"/>
<path d="M4505 2693 c-11 -8 -26 -18 -33 -22 -16 -9 -5 -41 15 -41 12 0 49 67
41 75 -2 2 -12 -3 -23 -12z"/>
<path d="M2710 2439 c0 -5 5 -7 10 -4 6 3 10 8 10 11 0 2 -4 4 -10 4 -5 0 -10
-5 -10 -11z"/>
<path d="M4300 2351 c0 -25 36 -51 71 -51 29 0 90 37 97 60 4 12 2 13 -9 3
-25 -21 -79 -25 -111 -8 -40 20 -48 19 -48 -4z"/>
</g>
</svg>
